<svg id="Layer_1" data-name="Layer 1" xmlns="http://www.w3.org/2000/svg" viewBox="0 0 59.9 49"><defs><style>.cls-1{fill:#fff;}</style></defs><path class="cls-1" d="M33.36,9.62a9.47,9.47,0,0,0-4.47-4.26c-1.8-.71-3.76-.63-5.61-1.15A7.17,7.17,0,0,1,18.74,1,.63.63,0,0,0,18.2.65c-.92,0-1.28.78-1.16,1.63a4.58,4.58,0,0,0,.64,1.49,7,7,0,0,1,.57,1.94,16.24,16.24,0,0,0,2.44,6.6,9.77,9.77,0,0,0,4.69,3.75,12.33,12.33,0,0,0,4,.57,11.67,11.67,0,0,0,4.08-.38.29.29,0,0,0,.12-.07.65.65,0,0,0,.78-.4A7.26,7.26,0,0,0,33.36,9.62Zm-1.8,6a14.67,14.67,0,0,1-7.07-5.4.63.63,0,0,1,1.09-.64,13.15,13.15,0,0,0,6.31,4.82C32.66,14.66,32.33,15.88,31.56,15.62Z" transform="translate(-2.05 -0.5)"/><path class="cls-1" d="M50.51.5A.63.63,0,0,0,50,.81,7.17,7.17,0,0,1,45.52,4c-1.87.54-3.87.45-5.7,1.17a9.49,9.49,0,0,0-4.4,4.14,7.33,7.33,0,0,0-1,6.28.66.66,0,0,0,.78.41l.12.07a11.56,11.56,0,0,0,3.93.38,13,13,0,0,0,4.11-.57A9.79,9.79,0,0,0,48,12.16a16.24,16.24,0,0,0,2.44-6.6A6.81,6.81,0,0,1,51,3.63a5.74,5.74,0,0,0,.63-1.41C51.82,1.35,51.46.5,50.51.5Zm-6.29,9.57a14.61,14.61,0,0,1-7.07,5.4c-.77.26-1.1-1-.33-1.21a13.26,13.26,0,0,0,6.31-4.82.63.63,0,1,1,1.09.63Z" transform="translate(-2.05 -0.5)"/><path class="cls-1" d="M33.32,15.84c.29,11.14-.6,22.27-.3,33.41,0,.52,1.85.18,1.83-.49-.3-11.14.59-22.27.29-33.41,0-.52-1.84-.18-1.82.49Z" transform="translate(-2.05 -0.5)"/><path class="cls-1" d="M33,25.45C26,29.56,18.33,32,10.58,34.27c-.23.07-1.21.33-1.11.72s1.14.11,1.32.06c8.33-2.46,16.52-5.09,24.05-9.51.44-.26.25-.48-.15-.55a2.87,2.87,0,0,0-1.72.46Z" transform="translate(-2.05 -0.5)"/><path class="cls-1" d="M34.73,26.08A33.41,33.41,0,0,1,44.8,29.45q5.14,2.4,10.28,4.84c.75.35,2.1-.73,1.05-1.23-3.53-1.66-7.06-3.34-10.6-5a33.64,33.64,0,0,0-10.16-3.31c-.9-.11-1.87,1.17-.64,1.32Z" transform="translate(-2.05 -0.5)"/><path class="cls-1" d="M20.77,31.71c-.42,2.17-1.75,4-3,5.75l-4.22,6.15c-.18.26.66.16.72.15a1.76,1.76,0,0,0,1.08-.48l4.22-6.16c1.22-1.78,2.56-3.57,3-5.74.07-.37-1.72-.1-1.8.33Z" transform="translate(-2.05 -0.5)"/><path class="cls-1" d="M30.08,27.27c-8.18.5-16.25,2.09-24.43,2.59a7.84,7.84,0,0,0-2.74.87c-.22.1-1.39.69-.57.64,8.18-.5,16.25-2.09,24.43-2.59a7.91,7.91,0,0,0,2.74-.87c.21-.1,1.39-.69.57-.64Z" transform="translate(-2.05 -0.5)"/><path class="cls-1" d="M42.55,27.49c5.81.14,11.61.59,17.42.5a3.33,3.33,0,0,0,1.72-.46c.36-.23.38-.47-.12-.46-5.81.08-11.62-.36-17.42-.51a3.4,3.4,0,0,0-1.73.46c-.36.24-.36.46.13.47Z" transform="translate(-2.05 -0.5)"/><path class="cls-1" d="M45.21,29.82a29.75,29.75,0,0,0,1,10c.07.24,1.29-.08,1.22-.32a29.58,29.58,0,0,1-1-10c0-.12-1.19,0-1.22.33Z" transform="translate(-2.05 -0.5)"/><path class="cls-1" d="M33.26,38a15.06,15.06,0,0,0,3.34,3.78,17.42,17.42,0,0,0,4.2,2.93,1.17,1.17,0,0,0,.78-.07c.05,0,.56-.26.37-.34a17.26,17.26,0,0,1-4.12-2.86,15.05,15.05,0,0,1-3.36-3.76c-.16-.3-1.31.15-1.21.32Z" transform="translate(-2.05 -0.5)"/><path class="cls-1" d="M33.08,35.82c-3.74,1.53-5.37,5.33-8,8.1-.3.32.26.48.48.48a1.68,1.68,0,0,0,1.21-.48C28,42.61,29,41.1,30.09,39.69a9.69,9.69,0,0,1,3.68-3.21c.23-.09.75-.37.51-.68s-.94-.09-1.2,0Z" transform="translate(-2.05 -0.5)"/></svg>